<?xml version="1.0" encoding="utf-8"?>
<!-- Generator: Adobe Illustrator 17.0.2, SVG Export Plug-In . SVG Version: 6.00 Build 0)  -->
<!DOCTYPE svg PUBLIC "-//W3C//DTD SVG 1.1//EN" "http://www.w3.org/Graphics/SVG/1.1/DTD/svg11.dtd">
<svg version="1.1" id="Capa_1" xmlns="http://www.w3.org/2000/svg" xmlns:xlink="http://www.w3.org/1999/xlink" x="0px" y="0px"
	 width="64px" height="64px" viewBox="0 0 64 64" enable-background="new 0 0 64 64" xml:space="preserve">
<g>
	<path d="M1.099,55.934c0.223,0.581,0.779,0.964,1.401,0.964h33.573c0.369,0,0.726-0.136,1.001-0.383l25.427-22.782
		c0.463-0.415,0.622-1.072,0.4-1.653c-0.223-0.581-0.779-0.964-1.401-0.964h-4.459l5.46-4.892c0.463-0.415,0.622-1.072,0.4-1.653
		c-0.223-0.581-0.779-0.964-1.401-0.964h-4.459l5.46-4.892c0.463-0.415,0.622-1.072,0.4-1.653c-0.223-0.581-0.779-0.964-1.401-0.964
		h-4.459l5.46-4.892c0.463-0.415,0.622-1.072,0.4-1.653c-0.223-0.581-0.779-0.964-1.401-0.964H27.927
		c-0.369,0-0.726,0.136-1.001,0.383L1.499,31.754c-0.463,0.415-0.622,1.072-0.4,1.653c0.223,0.581,0.779,0.964,1.401,0.964h4.459
		l-5.46,4.892c-0.463,0.415-0.622,1.072-0.4,1.653C1.321,41.497,1.878,41.88,2.5,41.88h4.459l-5.46,4.892
		c-0.463,0.415-0.622,1.072-0.4,1.653c0.223,0.581,0.779,0.964,1.401,0.964h4.459l-5.46,4.892
		C1.036,54.696,0.877,55.354,1.099,55.934z M57.578,11.589l-5.033,4.509l-1.674,1.5l-1.674,1.5l-5.033,4.509l-1.674,1.5l-1.674,1.5
		l-5.032,4.509L35.5,31.371h-8.365h-3.952h-2.248h-2.248h-3.886h-2.247h-2.248H6.422L28.5,11.589H57.578z M15.34,34.371h2.248h2.248
		h3.885h2.248h2.247h7.858c0.286,0,0.552-0.103,0.791-0.255c0.07-0.044,0.148-0.072,0.21-0.128l1.531-1.372l1.674-1.5l5.032-4.509
		l1.674-1.5l1.674-1.5l5.033-4.509h3.885l-5.033,4.509l-1.674,1.5l-1.674,1.5l-5.032,4.509l-1.674,1.5l-1.674,1.5L35.5,38.88H23.183
		h-2.247h-2.248h-3.885h-2.248h-2.248H6.422l5.032-4.509H15.34z M15.34,41.88h2.248h2.247h16.238c0.369,0,0.726-0.136,1.001-0.383
		l8.238-7.381l1.674-1.5l1.674-1.5l5.032-4.509h3.886l-5.032,4.509l-1.674,1.5l-1.674,1.5L35.5,46.389H14.803h-2.248h-2.248H6.422
		l5.033-4.509H15.34z M36.073,49.389c0.369,0,0.726-0.136,1.001-0.383l16.619-14.89h3.885L35.5,53.898H6.422l5.033-4.509H36.073z"/>
</g>
</svg>
